<?xml version="1.0" encoding="iso-8859-1"?>
<!-- Generator: Adobe Illustrator 19.0.0, SVG Export Plug-In . SVG Version: 6.00 Build 0)  -->
<svg version="1.1" id="Capa_1" xmlns="http://www.w3.org/2000/svg" xmlns:xlink="http://www.w3.org/1999/xlink" x="0px" y="0px"
	 viewBox="0 0 512 512" style="enable-background:new 0 0 512 512;" xml:space="preserve">
<g>
	<g>
		<path d="M256,0C114.508,0,0,114.497,0,256c0,141.492,114.497,256,256,256c141.492,0,256-114.497,256-256
			C512,114.508,397.503,0,256,0z M334.136,114.225c17.568-17.568,46.07-17.568,63.64,0.001c17.569,17.569,17.567,46.069,0,63.639
			c-0.001,0.001-0.001,0.001-0.001,0.001c-17.57,17.568-46.07,17.568-63.64-0.001C316.567,160.296,316.566,131.794,334.136,114.225z
			 M256,55.5c24.813,0,45,20.187,45,45s-20.187,45-45,45s-45-20.187-45-45S231.187,55.5,256,55.5z M114.226,114.225
			c17.569-17.569,46.069-17.567,63.639,0c0.001,0.001,0.001,0.001,0.001,0.001c17.568,17.57,17.568,46.07-0.001,63.64
			c-17.568,17.568-46.07,17.568-63.64-0.001C96.657,160.296,96.656,131.794,114.226,114.225z M55.5,256c0-24.813,20.187-45,45-45
			s45,20.187,45,45s-20.187,45-45,45S55.5,280.813,55.5,256z M177.865,397.774c-17.571,17.569-46.071,17.569-63.641,0
			c-17.568-17.568-17.568-46.07,0.001-63.64c17.568-17.568,46.07-17.568,63.64,0.001
			C195.434,351.704,195.433,380.205,177.865,397.774z M256,456.5c-24.813,0-45-20.187-45-45s20.187-45,45-45s45,20.187,45,45
			S280.813,456.5,256,456.5z M256,341c-46.869,0-85-38.131-85-85c0-46.869,38.131-85,85-85s85,38.131,85,85S302.869,341,256,341z
			 M397.774,397.775c-17.568,17.568-46.07,17.568-63.64-0.001c-17.568-17.568-17.568-46.07,0.001-63.64
			c17.569-17.569,46.069-17.567,63.639,0c0.001,0.001,0.001,0.001,0.001,0.001C415.343,351.705,415.344,380.206,397.774,397.775z
			 M411.5,301c-24.813,0-45-20.187-45-45s20.187-45,45-45s45,20.187,45,45S436.313,301,411.5,301z"/>
	</g>
</g>
<g>
</g>
<g>
</g>
<g>
</g>
<g>
</g>
<g>
</g>
<g>
</g>
<g>
</g>
<g>
</g>
<g>
</g>
<g>
</g>
<g>
</g>
<g>
</g>
<g>
</g>
<g>
</g>
<g>
</g>
</svg>
